<svg xmlns="http://www.w3.org/2000/svg">

	<symbol id="long-arrow"  viewBox="0 0 37 8">
		<path d="M36.3536 4.35355C36.5488 4.15829 36.5488 3.84171 36.3536 3.64645L33.1716 0.464466C32.9763 0.269204 32.6597 0.269204 32.4645 0.464466C32.2692 0.659728 32.2692 0.976311 32.4645 1.17157L35.2929 4L32.4645 6.82843C32.2692 7.02369 32.2692 7.34027 32.4645 7.53553C32.6597 7.7308 32.9763 7.7308 33.1716 7.53553L36.3536 4.35355ZM0 4.5H36V3.5H0V4.5Z" fill="currentColor"/>
	</symbol>

	<symbol id="close"  viewBox="0 0 20 20">
		<path d="M19 1L1 19M1 1L19 19" stroke="currentColor" stroke-linecap="round" stroke-linejoin="round"/>
	</symbol>

	<symbol id="filter"  viewBox="0 0 16 16">
		<path d="M8.51781 5.17383H0.78125C0.57405 5.17383 0.375336 5.09152 0.228823 4.94501C0.08231 4.79849 0 4.59978 0 4.39258C0 4.18538 0.08231 3.98666 0.228823 3.84015C0.375336 3.69364 0.57405 3.61133 0.78125 3.61133H8.51875C8.72595 3.61133 8.92466 3.69364 9.07118 3.84015C9.21769 3.98666 9.3 4.18538 9.3 4.39258C9.3 4.59978 9.21769 4.79849 9.07118 4.94501C8.92466 5.09152 8.72595 5.17383 8.51875 5.17383H8.51781ZM15.2188 5.17383H13.2631C13.0559 5.17383 12.8572 5.09152 12.7107 4.94501C12.5642 4.79849 12.4819 4.59978 12.4819 4.39258C12.4819 4.18538 12.5642 3.98666 12.7107 3.84015C12.8572 3.69364 13.0559 3.61133 13.2631 3.61133H15.2188C15.426 3.61133 15.6247 3.69364 15.7712 3.84015C15.9177 3.98666 16 4.18538 16 4.39258C16 4.59978 15.9177 4.79849 15.7712 4.94501C15.6247 5.09152 15.426 5.17383 15.2188 5.17383ZM15.2188 12.3888H7.48219C7.27499 12.3888 7.07627 12.3065 6.92976 12.16C6.78325 12.0135 6.70094 11.8148 6.70094 11.6076C6.70094 11.4004 6.78325 11.2017 6.92976 11.0552C7.07627 10.9086 7.27499 10.8263 7.48219 10.8263H15.2188C15.426 10.8263 15.6247 10.9086 15.7712 11.0552C15.9177 11.2017 16 11.4004 16 11.6076C16 11.8148 15.9177 12.0135 15.7712 12.16C15.6247 12.3065 15.426 12.3888 15.2188 12.3888ZM2.73688 12.3888H0.78125C0.57405 12.3888 0.375336 12.3065 0.228823 12.16C0.08231 12.0135 0 11.8148 0 11.6076C0 11.4004 0.08231 11.2017 0.228823 11.0552C0.375336 10.9086 0.57405 10.8263 0.78125 10.8263H2.73688C2.94408 10.8263 3.14279 10.9086 3.2893 11.0552C3.43581 11.2017 3.51813 11.4004 3.51813 11.6076C3.51813 11.8148 3.43581 12.0135 3.2893 12.16C3.14279 12.3065 2.94408 12.3888 2.73688 12.3888Z" fill="currentColor"/>
		<path d="M5.10945 14.7036C4.48563 14.7037 3.87579 14.5187 3.35707 14.1722C2.83834 13.8257 2.43403 13.3331 2.19526 12.7568C1.95649 12.1804 1.89398 11.5462 2.01565 10.9344C2.13731 10.3225 2.43768 9.76052 2.87877 9.31938C3.31986 8.87825 3.88186 8.57782 4.4937 8.4561C5.10554 8.33437 5.73973 8.39681 6.31608 8.63553C6.89242 8.87424 7.38504 9.27851 7.73163 9.7972C8.07821 10.3159 8.2632 10.9257 8.2632 11.5495C8.26262 12.3858 7.93018 13.1877 7.33887 13.779C6.74756 14.3704 5.94573 14.7029 5.10945 14.7036ZM5.10945 9.95828C4.79465 9.95822 4.48689 10.0515 4.22511 10.2264C3.96333 10.4012 3.75929 10.6498 3.63879 10.9406C3.51829 11.2315 3.48674 11.5515 3.54815 11.8603C3.60955 12.169 3.76113 12.4526 3.98374 12.6753C4.20634 12.8979 4.48996 13.0494 4.79872 13.1108C5.10748 13.1722 5.42752 13.1407 5.71835 13.0202C6.00918 12.8997 6.25775 12.6957 6.43261 12.4339C6.60747 12.1721 6.70077 11.8643 6.7007 11.5495C6.70004 11.1277 6.53218 10.7234 6.23391 10.4251C5.93563 10.1268 5.53128 9.95894 5.10945 9.95828ZM10.8901 7.54641C10.2663 7.54641 9.65646 7.36142 9.13778 7.01485C8.61909 6.66828 8.21483 6.17568 7.97611 5.59935C7.73738 5.02302 7.67492 4.38885 7.79662 3.77702C7.91832 3.16519 8.21872 2.60319 8.65982 2.16209C9.10092 1.72098 9.66292 1.42059 10.2748 1.29889C10.8866 1.17719 11.5208 1.23965 12.0971 1.47837C12.6734 1.71709 13.166 2.12136 13.5126 2.64004C13.8592 3.15872 14.0441 3.76853 14.0441 4.39235C14.0436 5.22868 13.7111 6.03059 13.1197 6.62196C12.5283 7.21334 11.7264 7.54583 10.8901 7.54641ZM10.8901 2.8011C10.5753 2.8011 10.2676 2.89445 10.0058 3.06934C9.74408 3.24424 9.54009 3.49283 9.41964 3.78367C9.29918 4.0745 9.26768 4.39453 9.32912 4.70327C9.39056 5.01201 9.54217 5.2956 9.76478 5.51817C9.9874 5.74074 10.271 5.8923 10.5798 5.95368C10.8885 6.01505 11.2085 5.98349 11.4994 5.86298C11.7902 5.74247 12.0387 5.53843 12.2136 5.27665C12.3884 5.01488 12.4817 4.70714 12.4816 4.39235C12.481 3.97047 12.3131 3.56606 12.0147 3.26778C11.7164 2.9695 11.312 2.80167 10.8901 2.8011Z" fill="currentColor"/>
	</symbol>
	<symbol id="similar"  viewBox="0 0 15 16">	
		<path d="M12.232 7.87197C12.157 7.87197 12.0819 7.87197 12.0069 7.94701V9.82309L10.8812 8.69744C10.0558 7.94701 8.78003 7.94701 7.95456 8.69744L7.42926 9.22274L5.55318 7.34667C4.72771 6.59624 3.45198 6.59624 2.6265 7.34667L1.50086 8.47231V4.26991C1.50086 3.81965 1.80103 3.51948 2.25129 3.51948H6.37865C6.37865 2.99417 6.52874 2.46887 6.75387 2.01862H2.25129C0.975559 2.01862 0 2.99417 0 4.26991V13.2751C0 14.5508 0.975559 15.5264 2.25129 15.5264H11.2564C12.5322 15.5264 13.5077 14.5508 13.5077 13.2751V8.99761C13.2826 8.92257 13.1325 8.77248 12.9074 8.6224L12.232 7.87197ZM14.7835 6.74632L13.5077 5.47059C14.4833 3.96973 13.958 1.94357 12.4571 0.968014C10.9563 -0.00754434 8.93011 0.517757 7.95456 2.01862C6.979 3.51948 7.5043 5.54564 9.00516 6.5212C10.0558 7.19658 11.4065 7.19658 12.3821 6.5212L13.6578 7.79693C13.958 8.0971 14.4083 8.0971 14.7084 7.79693C15.0836 7.49675 15.0836 7.0465 14.7835 6.74632ZM10.7311 5.47059C9.75559 5.47059 9.00516 4.72016 9.00516 3.7446C9.00516 2.76905 9.75559 2.01862 10.7311 2.01862C11.7067 2.01862 12.4571 2.76905 12.4571 3.7446C12.4571 4.72016 11.7067 5.47059 10.7311 5.47059Z" fill="currentColor"/>
	</symbol>

</svg>